<svg width="200" height="200" viewBox="0 0 200 200" xmlns="http://www.w3.org/2000/svg">
  <defs>
    <!-- Hex clip path — perfectly regular hexagon, tightly fitted -->
    <clipPath id="hexClip">
      <polygon points="100,4 178.56,49.34 178.56,150.66 100,196 21.44,150.66 21.44,49.34"/>
    </clipPath>

    <!-- Background gradient: deep midnight blue to dark teal -->
    <radialGradient id="bgRadial" cx="50%" cy="40%" r="70%" fx="45%" fy="35%">
      <stop offset="0%" stop-color="#0f3443"/>
      <stop offset="55%" stop-color="#0a1628"/>
      <stop offset="100%" stop-color="#060d1a"/>
    </radialGradient>

    <!-- Metallic rim gradient -->
    <linearGradient id="rimGrad" x1="0%" y1="0%" x2="100%" y2="100%">
      <stop offset="0%" stop-color="#5eead4"/>
      <stop offset="25%" stop-color="#2dd4bf"/>
      <stop offset="50%" stop-color="#99f6e4"/>
      <stop offset="75%" stop-color="#2dd4bf"/>
      <stop offset="100%" stop-color="#14b8a6"/>
    </linearGradient>

    <!-- Inner rim highlight -->
    <linearGradient id="innerRimGrad" x1="0%" y1="0%" x2="100%" y2="100%">
      <stop offset="0%" stop-color="#5eead4" stop-opacity="0.4"/>
      <stop offset="50%" stop-color="#2dd4bf" stop-opacity="0.15"/>
      <stop offset="100%" stop-color="#0d9488" stop-opacity="0.3"/>
    </linearGradient>

    <!-- Central prism gradient -->
    <linearGradient id="prismGrad" x1="0%" y1="0%" x2="100%" y2="100%">
      <stop offset="0%" stop-color="#67e8f9"/>
      <stop offset="40%" stop-color="#22d3ee"/>
      <stop offset="100%" stop-color="#0891b2"/>
    </linearGradient>

    <!-- Prism facet gradients -->
    <linearGradient id="facetLeft" x1="0%" y1="0%" x2="100%" y2="100%">
      <stop offset="0%" stop-color="#06b6d4" stop-opacity="0.9"/>
      <stop offset="100%" stop-color="#0e7490" stop-opacity="0.6"/>
    </linearGradient>
    <linearGradient id="facetRight" x1="100%" y1="0%" x2="0%" y2="100%">
      <stop offset="0%" stop-color="#22d3ee" stop-opacity="0.8"/>
      <stop offset="100%" stop-color="#155e75" stop-opacity="0.5"/>
    </linearGradient>
    <linearGradient id="facetTop" x1="50%" y1="0%" x2="50%" y2="100%">
      <stop offset="0%" stop-color="#a5f3fc" stop-opacity="0.95"/>
      <stop offset="100%" stop-color="#67e8f9" stop-opacity="0.7"/>
    </linearGradient>

    <!-- Light ray gradient -->
    <linearGradient id="rayGrad" x1="50%" y1="0%" x2="50%" y2="100%">
      <stop offset="0%" stop-color="#a5f3fc" stop-opacity="0.6"/>
      <stop offset="100%" stop-color="#22d3ee" stop-opacity="0"/>
    </linearGradient>
    <linearGradient id="rayGradUp" x1="50%" y1="100%" x2="50%" y2="0%">
      <stop offset="0%" stop-color="#a5f3fc" stop-opacity="0.5"/>
      <stop offset="100%" stop-color="#67e8f9" stop-opacity="0"/>
    </linearGradient>

    <!-- Glow filter for the central prism -->
    <filter id="prismGlow" x="-50%" y="-50%" width="200%" height="200%">
      <feGaussianBlur in="SourceGraphic" stdDeviation="6" result="blur"/>
      <feColorMatrix in="blur" type="matrix" values="0 0 0 0 0.13  0 0 0 0 0.83  0 0 0 0 0.93  0 0 0 0.7 0" result="colorBlur"/>
      <feMerge>
        <feMergeNode in="colorBlur"/>
        <feMergeNode in="SourceGraphic"/>
      </feMerge>
    </filter>

    <!-- Outer shadow filter -->
    <filter id="outerShadow" x="-15%" y="-15%" width="130%" height="130%">
      <feGaussianBlur in="SourceAlpha" stdDeviation="4" result="shadow"/>
      <feOffset dx="0" dy="2" result="offsetShadow"/>
      <feColorMatrix in="offsetShadow" type="matrix" values="0 0 0 0 0  0 0 0 0 0.05  0 0 0 0 0.1  0 0 0 0.6 0"/>
      <feMerge>
        <feMergeNode/>
        <feMergeNode in="SourceGraphic"/>
      </feMerge>
    </filter>

    <!-- Subtle inner glow -->
    <filter id="innerGlow" x="-10%" y="-10%" width="120%" height="120%">
      <feGaussianBlur in="SourceGraphic" stdDeviation="3"/>
    </filter>

    <!-- Node glow -->
    <filter id="nodeGlow" x="-100%" y="-100%" width="300%" height="300%">
      <feGaussianBlur in="SourceGraphic" stdDeviation="2.5" result="blur"/>
      <feColorMatrix in="blur" type="matrix" values="0 0 0 0 0.4  0 0 0 0 0.91  0 0 0 0 0.98  0 0 0 0.8 0"/>
      <feMerge>
        <feMergeNode/>
        <feMergeNode in="SourceGraphic"/>
      </feMerge>
    </filter>

    <!-- Fine grid pattern -->
    <pattern id="gridPattern" x="0" y="0" width="16" height="16" patternUnits="userSpaceOnUse">
      <path d="M 16 0 L 0 0 0 16" fill="none" stroke="#5eead4" stroke-width="0.15" opacity="0.2"/>
    </pattern>

    <!-- Circuit trace pattern -->
    <pattern id="circuitPattern" x="0" y="0" width="40" height="40" patternUnits="userSpaceOnUse">
      <path d="M0,20 L12,20 L16,16 L24,16 L28,20 L40,20" fill="none" stroke="#2dd4bf" stroke-width="0.3" opacity="0.15"/>
      <path d="M20,0 L20,12 L16,16" fill="none" stroke="#2dd4bf" stroke-width="0.3" opacity="0.12"/>
      <path d="M20,40 L20,28 L24,24" fill="none" stroke="#2dd4bf" stroke-width="0.3" opacity="0.12"/>
      <circle cx="16" cy="16" r="1" fill="#5eead4" opacity="0.15"/>
      <circle cx="24" cy="24" r="0.7" fill="#5eead4" opacity="0.1"/>
    </pattern>

    <!-- Specular highlight gradient for rim -->
    <linearGradient id="specular" x1="30%" y1="0%" x2="70%" y2="100%">
      <stop offset="0%" stop-color="#ffffff" stop-opacity="0.35"/>
      <stop offset="40%" stop-color="#ffffff" stop-opacity="0"/>
      <stop offset="60%" stop-color="#ffffff" stop-opacity="0"/>
      <stop offset="100%" stop-color="#ffffff" stop-opacity="0.15"/>
    </linearGradient>

    <!-- Ambient light from top -->
    <linearGradient id="ambientTop" x1="50%" y1="0%" x2="50%" y2="100%">
      <stop offset="0%" stop-color="#cffafe" stop-opacity="0.08"/>
      <stop offset="40%" stop-color="#0e7490" stop-opacity="0"/>
    </linearGradient>
  </defs>

  <!-- ============================================== -->
  <!-- OUTER HEXAGON with metallic rim and shadow     -->
  <!-- ============================================== -->
  <polygon 
    points="100,4 178.56,49.34 178.56,150.66 100,196 21.44,150.66 21.44,49.34"
    fill="url(#rimGrad)" 
    filter="url(#outerShadow)"/>

  <!-- Inner fill hexagon (inset by ~3px for rim effect) -->
  <polygon 
    points="100,8.5 175.2,51.5 175.2,148.5 100,191.5 24.8,148.5 24.8,51.5"
    fill="url(#bgRadial)"/>

  <!-- Everything below is clipped to hexagon -->
  <g clip-path="url(#hexClip)">

    <!-- Subtle grid overlay -->
    <rect x="0" y="0" width="200" height="200" fill="url(#gridPattern)" opacity="0.5"/>

    <!-- Circuit trace overlay -->
    <rect x="0" y="0" width="200" height="200" fill="url(#circuitPattern)" opacity="0.7"/>

    <!-- Ambient top lighting -->
    <rect x="0" y="0" width="200" height="200" fill="url(#ambientTop)"/>

    <!-- Inner hex border glow -->
    <polygon 
      points="100,8.5 175.2,51.5 175.2,148.5 100,191.5 24.8,148.5 24.8,51.5"
      fill="none" stroke="url(#innerRimGrad)" stroke-width="1.5"/>

    <!-- ============================================ -->
    <!-- GRAPH NETWORK — structural tracery lines     -->
    <!-- ============================================ -->
    
    <!-- Outer connection ring nodes -->
    <g opacity="0.5">
      <!-- Radial lines from center towards hex vertices -->
      <line x1="100" y1="100" x2="100" y2="30" stroke="#2dd4bf" stroke-width="0.5" opacity="0.3"/>
      <line x1="100" y1="100" x2="160" y2="55" stroke="#2dd4bf" stroke-width="0.5" opacity="0.25"/>
      <line x1="100" y1="100" x2="160" y2="145" stroke="#2dd4bf" stroke-width="0.5" opacity="0.25"/>
      <line x1="100" y1="100" x2="100" y2="170" stroke="#2dd4bf" stroke-width="0.5" opacity="0.3"/>
      <line x1="100" y1="100" x2="40" y2="145" stroke="#2dd4bf" stroke-width="0.5" opacity="0.25"/>
      <line x1="100" y1="100" x2="40" y2="55" stroke="#2dd4bf" stroke-width="0.5" opacity="0.25"/>
    </g>

    <!-- Secondary graph edges — cross connections -->
    <g opacity="0.25" stroke="#67e8f9" stroke-width="0.4">
      <line x1="100" y1="30" x2="160" y2="55"/>
      <line x1="160" y1="55" x2="160" y2="145"/>
      <line x1="160" y1="145" x2="100" y2="170"/>
      <line x1="100" y1="170" x2="40" y2="145"/>
      <line x1="40" y1="145" x2="40" y2="55"/>
      <line x1="40" y1="55" x2="100" y2="30"/>
    </g>

    <!-- Tertiary connections — diagonal cross-links -->
    <g opacity="0.15" stroke="#a5f3fc" stroke-width="0.3">
      <line x1="100" y1="30" x2="160" y2="145"/>
      <line x1="160" y1="55" x2="40" y2="145"/>
      <line x1="100" y1="170" x2="40" y2="55"/>
      <line x1="100" y1="30" x2="40" y2="145"/>
      <line x1="160" y1="55" x2="100" y2="170"/>
      <line x1="160" y1="145" x2="40" y2="55"/>
    </g>

    <!-- Mid-ring secondary nodes & links -->
    <g opacity="0.3">
      <line x1="100" y1="60" x2="135" y2="75" stroke="#5eead4" stroke-width="0.4"/>
      <line x1="135" y1="75" x2="135" y2="125" stroke="#5eead4" stroke-width="0.4"/>
      <line x1="135" y1="125" x2="100" y2="140" stroke="#5eead4" stroke-width="0.4"/>
      <line x1="100" y1="140" x2="65" y2="125" stroke="#5eead4" stroke-width="0.4"/>
      <line x1="65" y1="125" x2="65" y2="75" stroke="#5eead4" stroke-width="0.4"/>
      <line x1="65" y1="75" x2="100" y2="60" stroke="#5eead4" stroke-width="0.4"/>
    </g>

    <!-- Graph nodes at outer ring intersections -->
    <g filter="url(#nodeGlow)">
      <circle cx="100" cy="30" r="2.5" fill="#67e8f9" opacity="0.7"/>
      <circle cx="160" cy="55" r="2" fill="#67e8f9" opacity="0.6"/>
      <circle cx="160" cy="145" r="2" fill="#67e8f9" opacity="0.6"/>
      <circle cx="100" cy="170" r="2.5" fill="#67e8f9" opacity="0.7"/>
      <circle cx="40" cy="145" r="2" fill="#67e8f9" opacity="0.6"/>
      <circle cx="40" cy="55" r="2" fill="#67e8f9" opacity="0.6"/>
    </g>

    <!-- Mid-ring nodes -->
    <g opacity="0.6">
      <circle cx="100" cy="60" r="1.8" fill="#5eead4"/>
      <circle cx="135" cy="75" r="1.5" fill="#5eead4"/>
      <circle cx="135" cy="125" r="1.5" fill="#5eead4"/>
      <circle cx="100" cy="140" r="1.8" fill="#5eead4"/>
      <circle cx="65" cy="125" r="1.5" fill="#5eead4"/>
      <circle cx="65" cy="75" r="1.5" fill="#5eead4"/>
    </g>

    <!-- ============================================ -->
    <!-- CENTRAL PRISM — faceted diamond focal point  -->
    <!-- ============================================ -->

    <!-- Light rays emanating from prism -->
    <g opacity="0.4">
      <!-- Upward ray -->
      <polygon points="96,82 104,82 101,30 99,30" fill="url(#rayGradUp)" opacity="0.35"/>
      <!-- Downward ray -->
      <polygon points="96,118 104,118 101,170 99,170" fill="url(#rayGrad)" opacity="0.3"/>
      <!-- Left ray -->
      <polygon points="82,96 82,104 40,101 40,99" fill="url(#rayGradUp)" opacity="0.25" transform="rotate(0,100,100)"/>
      <!-- Right ray -->
      <polygon points="118,96 118,104 160,101 160,99" fill="url(#rayGrad)" opacity="0.25"/>
      <!-- Diagonal rays -->
      <line x1="88" y1="88" x2="50" y2="50" stroke="#a5f3fc" stroke-width="0.8" opacity="0.15"/>
      <line x1="112" y1="88" x2="150" y2="50" stroke="#a5f3fc" stroke-width="0.8" opacity="0.15"/>
      <line x1="112" y1="112" x2="150" y2="150" stroke="#a5f3fc" stroke-width="0.8" opacity="0.12"/>
      <line x1="88" y1="112" x2="50" y2="150" stroke="#a5f3fc" stroke-width="0.8" opacity="0.12"/>
    </g>

    <!-- Prism glow underlayer -->
    <polygon 
      points="100,72 120,100 100,128 80,100" 
      fill="#22d3ee" opacity="0.15" filter="url(#innerGlow)"/>

    <!-- Prism body — faceted diamond shape -->
    <g filter="url(#prismGlow)">
      <!-- Top facet -->
      <polygon points="100,75 116,100 100,95 84,100" fill="url(#facetTop)"/>
      <!-- Left facet -->
      <polygon points="100,75 84,100 100,125" fill="url(#facetLeft)"/>
      <!-- Right facet -->
      <polygon points="100,75 116,100 100,125" fill="url(#facetRight)"/>
      <!-- Bottom facet highlight -->
      <polygon points="84,100 100,125 116,100 100,105" fill="#0e7490" opacity="0.7"/>
    </g>

    <!-- Prism edge highlights -->
    <g stroke="#a5f3fc" stroke-width="0.6" fill="none" opacity="0.8">
      <line x1="100" y1="75" x2="116" y2="100"/>
      <line x1="100" y1="75" x2="84" y2="100"/>
      <line x1="84" y1="100" x2="100" y2="125"/>
      <line x1="116" y1="100" x2="100" y2="125"/>
    </g>

    <!-- Central horizontal crease -->
    <line x1="84" y1="100" x2="116" y2="100" stroke="#cffafe" stroke-width="0.4" opacity="0.5"/>

    <!-- Bright specular dot at top of prism -->
    <circle cx="100" cy="78" r="2" fill="#ecfeff" opacity="0.8"/>
    <circle cx="100" cy="78" r="1" fill="#ffffff" opacity="0.95"/>

    <!-- Small specular on right edge -->
    <circle cx="112" cy="95" r="0.8" fill="#cffafe" opacity="0.5"/>

    <!-- ============================================ -->
    <!-- INNER HEXAGON INLAY — beveled accent ring    -->
    <!-- ============================================ -->
    <polygon 
      points="100,42 140.4,65.33 140.4,134.67 100,158 59.6,134.67 59.6,65.33"
      fill="none" stroke="#2dd4bf" stroke-width="0.6" opacity="0.35"/>

    <!-- Tiny accent marks at inner hex vertices -->
    <g fill="#5eead4" opacity="0.5">
      <circle cx="100" cy="42" r="1.2"/>
      <circle cx="140.4" cy="65.33" r="1"/>
      <circle cx="140.4" cy="134.67" r="1"/>
      <circle cx="100" cy="158" r="1.2"/>
      <circle cx="59.6" cy="134.67" r="1"/>
      <circle cx="59.6" cy="65.33" r="1"/>
    </g>

    <!-- ============================================ -->
    <!-- SPECULAR OVERLAY on rim                      -->
    <!-- ============================================ -->
    <polygon 
      points="100,4 178.56,49.34 178.56,150.66 100,196 21.44,150.66 21.44,49.34"
      fill="url(#specular)" opacity="0.3"/>

    <!-- Top edge bright highlight -->
    <line x1="100" y1="4" x2="178.56" y2="49.34" stroke="#ffffff" stroke-width="0.5" opacity="0.2"/>
    <line x1="21.44" y1="49.34" x2="100" y2="4" stroke="#ffffff" stroke-width="0.5" opacity="0.15"/>

  </g>

  <!-- Outer hex rim stroke (on top of everything) -->
  <polygon 
    points="100,4 178.56,49.34 178.56,150.66 100,196 21.44,150.66 21.44,49.34"
    fill="none" stroke="url(#rimGrad)" stroke-width="2.5" stroke-linejoin="round"/>

</svg>
